<?xml version="1.0" encoding="UTF-8" standalone="no"?>
<svg width="81px" height="207px" viewBox="0 0 81 207" version="1.1" xmlns="http://www.w3.org/2000/svg" xmlns:xlink="http://www.w3.org/1999/xlink">
    <!-- Generator: Sketch 46.2 (44496) - http://www.bohemiancoding.com/sketch -->

    <g id="Page-1" stroke="none" stroke-width="1" fill="none" fill-rule="evenodd">
        <g id="Dribble-Copy" transform="translate(-205.000000, -160.000000)">
            <g id="body" transform="translate(208.000000, 155.000000)">
                <path d="M46,49.3435374 L46,135.003541" id="trunk" stroke="#FFA604" stroke-width="6"></path>
                <polyline class="arm-left" id="arm-left" stroke="#FFA604" stroke-width="6" stroke-linecap="round" transform="translate(33.996479, 106.673394) scale(-1, -1) rotate(-30.000000) translate(-33.996479, -106.673394) " points="58.4964792 84.1733938 41.5519891 115.519247 9.49647922 129.173394"></polyline>
                <polyline id="arm-right" stroke="#FFA604" stroke-width="6" stroke-linecap="round" transform="translate(60.500000, 106.500000) scale(-1, 1) translate(-60.500000, -106.500000) " points="73 74 48 96.4478984 60.0491877 139"></polyline>
                <path d="M0,189.799094 L14.4298937,193.599287 L14.4298937,193.599287 C16.0321173,194.021241 17.6730378,193.064444 18.0949922,191.46222 C18.1444828,191.274297 18.1755968,191.08201 18.1878957,190.888069 L20.3046361,157.509102 L46,136" id="leg-left" stroke="#FFA604" stroke-width="6" stroke-linecap="round"></path>
                <path d="M36,203 L52.9510073,201.213936 L52.9510073,201.213936 C54.405163,201.060717 55.5370355,199.881452 55.6305122,198.422238 L57.8571351,163.663627 L84,142" id="leg-right" stroke="#FFA604" stroke-width="6" stroke-linecap="round" transform="translate(60.000000, 172.500000) scale(-1, 1) rotate(-17.000000) translate(-60.000000, -172.500000) "></path>
                <ellipse id="head" fill="#FFA604" transform="translate(51.265500, 25.252824) rotate(22.000000) translate(-51.265500, -25.252824) " cx="51.2655002" cy="25.2528242" rx="14.6060561" ry="20.9655443"></ellipse>
                <g id="face" transform="translate(40.000000, 10.000000)" stroke="#0C0C0B" stroke-width="2" stroke-linecap="round">
                    <path d="M-1.20792265e-13,17 C6.84512324,18.6752156 10.8600972,20.2237182 12.0449219,21.6455078 C13.2297466,23.0672974 12.5481059,25.5187948 10,29" id="Line-7-Copy-2"></path>
                    <g id="eye-left" transform="translate(2.469388, 0.000000)">
                        <path d="M7.04081633,0 L7.04081633,12.6734694" id="Line-7"></path>
                        <path d="M6.57142857,0 L6.57142857,12.6734694" id="Line-7-Copy" transform="translate(6.571429, 6.571429) rotate(-75.000000) translate(-6.571429, -6.571429) "></path>
                    </g>
                    <g id="eye-right" transform="translate(10.918367, 9.387755)">
                        <path d="M7.04081633,0 L7.04081633,12.6734694" id="Line-7"></path>
                        <path d="M6.57142857,0 L6.57142857,12.6734694" id="Line-7-Copy" transform="translate(6.571429, 6.571429) rotate(-75.000000) translate(-6.571429, -6.571429) "></path>
                    </g>
                </g>
            </g>
        </g>
    </g>
</svg>